<svg
        width="100"
        height="100"
        viewBox="-4 -4 31 31"
        fill="none"
        xmlns="http://www.w3.org/2000/svg"
>
    <circle r="13.5" cx="12.5" cy="12.5" stroke="white" stroke-width="2"/>
    <path
            d="M6.62 10.79C8.06 13.62 10.38 15.94 13.21 17.38L15.04 15.55C15.27 15.32 15.6 15.25 15.89 15.36C16.96 15.76 18.13 15.99 19.33 15.99C19.88 15.99 20.33 16.44 20.33 16.99V20.33C20.33 20.88 19.88 21.33 19.33 21.33C10.78 21.33 3.67 14.22 3.67 5.67C3.67 5.12 4.12 4.67 4.67 4.67H8.01C8.56 4.67 9.01 5.12 9.01 5.67C9.01 6.87 9.24 8.04 9.64 9.11C9.75 9.4 9.68 9.73 9.45 9.96L6.62 12.79V10.79Z"
            fill="white"
    />
</svg>